<svg width="71" height="42" viewBox="0 0 71 42" fill="none" xmlns="http://www.w3.org/2000/svg">
<path d="M3.76953 11.4961V18H0.957031V0.9375H6.66406C7.52344 0.945313 8.3125 1.07422 9.03125 1.32422C9.75781 1.57422 10.3828 1.92969 10.9062 2.39062C11.4297 2.85156 11.8359 3.41016 12.125 4.06641C12.4141 4.72266 12.5586 5.46094 12.5586 6.28125C12.5586 7.07031 12.4141 7.78516 12.125 8.42578C11.8359 9.05859 11.4297 9.60156 10.9062 10.0547C10.3828 10.5156 9.75781 10.8711 9.03125 11.1211C8.3125 11.3711 7.52344 11.4961 6.66406 11.4961H3.76953ZM3.76953 9.19922H6.66406C7.14062 9.19141 7.56641 9.11719 7.94141 8.97656C8.32422 8.82812 8.64844 8.625 8.91406 8.36719C9.17969 8.10938 9.37891 7.80469 9.51172 7.45312C9.65234 7.10156 9.72266 6.71875 9.72266 6.30469C9.72266 5.85156 9.65234 5.44141 9.51172 5.07422C9.37891 4.69922 9.17969 4.375 8.91406 4.10156C8.64844 3.82813 8.32422 3.61719 7.94141 3.46875C7.56641 3.32031 7.14062 3.24219 6.66406 3.23438H3.76953V9.19922ZM23.4453 14.0742H18.0898L16.9297 18H14L19.5547 0.9375H22.0508L27.5117 18H24.5938L23.4453 14.0742ZM18.8047 11.6602H22.7539L20.7969 4.91016L18.8047 11.6602ZM35.3047 11.3789H32.4219V18H29.6094V0.9375H35.0234C35.9062 0.945313 36.7188 1.05859 37.4609 1.27734C38.2031 1.49609 38.8438 1.81641 39.3828 2.23828C39.9141 2.66797 40.3281 3.20312 40.625 3.84375C40.9219 4.47656 41.0703 5.21875 41.0703 6.07031C41.0703 6.65625 40.9922 7.1875 40.8359 7.66406C40.6875 8.14062 40.4766 8.57031 40.2031 8.95312C39.9297 9.33594 39.6016 9.67188 39.2188 9.96094C38.8359 10.25 38.4102 10.5 37.9414 10.7109L41.5859 17.8477V18H38.5742L35.3047 11.3789ZM32.4219 9.08203H35.0586C35.5586 9.07422 36.0078 9 36.4062 8.85938C36.8125 8.71094 37.1562 8.5 37.4375 8.22656C37.6875 7.99219 37.8828 7.70312 38.0234 7.35938C38.1641 7.01562 38.2344 6.625 38.2344 6.1875C38.2344 5.69531 38.1562 5.26562 38 4.89844C37.8516 4.52344 37.6289 4.21094 37.332 3.96094C37.0586 3.72656 36.7266 3.55078 36.3359 3.43359C35.9453 3.30859 35.5078 3.24219 35.0234 3.23438H32.4219V9.08203ZM47.3281 0.9375L49.4375 8.23828L51.7695 0.9375H55.2734V18H52.625V12.2109L52.7891 4.59375L50.1641 12.7383H48.6992L46.3203 4.875L46.4727 12.2109V18H43.8359V0.9375H47.3281ZM66.6875 14.0742H61.332L60.1719 18H57.2422L62.7969 0.9375H65.293L70.7539 18H67.8359L66.6875 14.0742ZM62.0469 11.6602H65.9961L64.0391 4.91016L62.0469 11.6602Z" fill="#EC2626"/>
<path d="M9.64062 36.6055C9.64062 36.207 9.55859 35.8555 9.39453 35.5508C9.23047 35.2461 9 34.9727 8.70312 34.7305C8.39062 34.5039 8.01953 34.3008 7.58984 34.1211C7.16797 33.9336 6.69531 33.7656 6.17188 33.6172C5.36719 33.3906 4.625 33.1133 3.94531 32.7852C3.27344 32.4492 2.69922 32.0742 2.22266 31.6602C1.74609 31.2383 1.37109 30.7617 1.09766 30.2305C0.832031 29.6914 0.699219 29.0859 0.699219 28.4141C0.699219 27.6875 0.855469 27.0352 1.16797 26.457C1.48047 25.8711 1.90234 25.3711 2.43359 24.957C2.96484 24.5508 3.58203 24.2422 4.28516 24.0312C4.99609 23.8125 5.74219 23.7031 6.52344 23.7031C7.35156 23.7031 8.12109 23.832 8.83203 24.0898C9.55078 24.3398 10.1758 24.6914 10.707 25.1445C11.2383 25.6055 11.6562 26.1562 11.9609 26.7969C12.2734 27.4297 12.4297 28.1328 12.4297 28.9062H9.64062C9.60156 28.4766 9.50781 28.0859 9.35938 27.7344C9.21875 27.375 9.01953 27.0664 8.76172 26.8086C8.49609 26.5586 8.17188 26.3633 7.78906 26.2227C7.41406 26.0742 6.98047 26 6.48828 26C6.05859 26 5.66016 26.0586 5.29297 26.1758C4.93359 26.2852 4.62109 26.4414 4.35547 26.6445C4.08984 26.8555 3.88281 27.1094 3.73438 27.4062C3.58594 27.7031 3.51172 28.0352 3.51172 28.4023C3.51953 28.793 3.62109 29.1367 3.81641 29.4336C4.01172 29.7227 4.27344 29.9766 4.60156 30.1953C4.9375 30.4141 5.32031 30.6055 5.75 30.7695C6.1875 30.9336 6.64453 31.0859 7.12109 31.2266C7.72266 31.3984 8.30859 31.6133 8.87891 31.8711C9.45703 32.1211 9.98828 32.4258 10.4727 32.7852C11.0742 33.2383 11.5547 33.7812 11.9141 34.4141C12.2812 35.0391 12.4648 35.7617 12.4648 36.582C12.4648 37.3398 12.3047 38.0078 11.9844 38.5859C11.6719 39.1641 11.25 39.6445 10.7188 40.0273C10.1797 40.4258 9.55469 40.7266 8.84375 40.9297C8.13281 41.125 7.38281 41.2227 6.59375 41.2227C5.75781 41.2227 4.93359 41.0938 4.12109 40.8359C3.30859 40.5703 2.60156 40.1875 2 39.6875C1.44531 39.2188 1.00391 38.668 0.675781 38.0352C0.355469 37.4023 0.191406 36.6758 0.183594 35.8555H2.99609C3.03516 36.3789 3.14453 36.8359 3.32422 37.2266C3.51172 37.6094 3.76562 37.9258 4.08594 38.1758C4.39844 38.4336 4.76562 38.625 5.1875 38.75C5.61719 38.875 6.08594 38.9375 6.59375 38.9375C7.02344 38.9375 7.42188 38.8867 7.78906 38.7852C8.16406 38.6836 8.48828 38.5312 8.76172 38.3281C9.02734 38.1328 9.23828 37.8906 9.39453 37.6016C9.55859 37.3125 9.64062 36.9805 9.64062 36.6055ZM27.2656 26.2695H22.0039V41H19.2031V26.2695H13.9766V23.9375H27.2656V26.2695ZM41.1406 33.6055C41.1406 34.293 41.0781 34.957 40.9531 35.5977C40.8359 36.2383 40.6641 36.8438 40.4375 37.4141C40.1953 37.9844 39.8945 38.5117 39.5352 38.9961C39.1758 39.4727 38.7617 39.8828 38.293 40.2266C37.8398 40.5391 37.3359 40.7852 36.7812 40.9648C36.2344 41.1445 35.6328 41.2344 34.9766 41.2344C34.2969 41.2344 33.6719 41.1406 33.1016 40.9531C32.5391 40.7578 32.0352 40.4922 31.5898 40.1562C31.1367 39.8125 30.7383 39.3984 30.3945 38.9141C30.0586 38.4297 29.7773 37.8984 29.5508 37.3203C29.332 36.7656 29.168 36.1758 29.0586 35.5508C28.9492 34.918 28.8945 34.2695 28.8945 33.6055V31.3555C28.8945 30.6602 28.9531 29.9883 29.0703 29.3398C29.1875 28.6914 29.3633 28.0781 29.5977 27.5C29.8242 26.9453 30.1016 26.4375 30.4297 25.9766C30.7656 25.5078 31.1602 25.1016 31.6133 24.7578C32.0508 24.4219 32.5469 24.1641 33.1016 23.9844C33.6641 23.7969 34.2812 23.7031 34.9531 23.7031C35.6328 23.7031 36.2578 23.7969 36.8281 23.9844C37.3984 24.1719 37.9102 24.4336 38.3633 24.7695C38.8164 25.1055 39.2109 25.5 39.5469 25.9531C39.8828 26.4062 40.1641 26.9023 40.3906 27.4414C40.6406 28.0195 40.8281 28.6406 40.9531 29.3047C41.0781 29.9609 41.1406 30.6445 41.1406 31.3555V33.6055ZM38.3047 31.332C38.2969 30.9023 38.2695 30.4805 38.2227 30.0664C38.1836 29.6523 38.1133 29.2578 38.0117 28.8828C37.8945 28.4531 37.7383 28.0625 37.543 27.7109C37.3555 27.3516 37.125 27.0469 36.8516 26.7969C36.6094 26.5781 36.332 26.4062 36.0195 26.2812C35.707 26.1562 35.3516 26.0938 34.9531 26.0938C34.5703 26.0938 34.2266 26.1562 33.9219 26.2812C33.6172 26.3984 33.3516 26.5625 33.125 26.7734C32.8516 27.0312 32.6211 27.3398 32.4336 27.6992C32.2461 28.0508 32.1016 28.4453 32 28.8828C31.9062 29.2578 31.8359 29.6562 31.7891 30.0781C31.75 30.4922 31.7305 30.9102 31.7305 31.332V33.6055C31.7305 34.0195 31.75 34.4297 31.7891 34.8359C31.8281 35.2422 31.8945 35.6328 31.9883 36.0078C32.0898 36.4297 32.2266 36.8242 32.3984 37.1914C32.5781 37.5508 32.793 37.8555 33.043 38.1055C33.2852 38.3398 33.5625 38.5273 33.875 38.668C34.1953 38.8008 34.5625 38.8672 34.9766 38.8672C35.375 38.8672 35.7344 38.8008 36.0547 38.668C36.3828 38.5352 36.6641 38.3555 36.8984 38.1289C37.1719 37.8711 37.3984 37.5664 37.5781 37.2148C37.7656 36.8555 37.9141 36.4609 38.0234 36.0312C38.1172 35.6562 38.1836 35.2656 38.2227 34.8594C38.2695 34.4453 38.2969 34.0273 38.3047 33.6055V31.332ZM49.7188 34.3789H46.8359V41H44.0234V23.9375H49.4375C50.3203 23.9453 51.1328 24.0586 51.875 24.2773C52.6172 24.4961 53.2578 24.8164 53.7969 25.2383C54.3281 25.668 54.7422 26.2031 55.0391 26.8438C55.3359 27.4766 55.4844 28.2188 55.4844 29.0703C55.4844 29.6562 55.4062 30.1875 55.25 30.6641C55.1016 31.1406 54.8906 31.5703 54.6172 31.9531C54.3438 32.3359 54.0156 32.6719 53.6328 32.9609C53.25 33.25 52.8242 33.5 52.3555 33.7109L56 40.8477V41H52.9883L49.7188 34.3789ZM46.8359 32.082H49.4727C49.9727 32.0742 50.4219 32 50.8203 31.8594C51.2266 31.7109 51.5703 31.5 51.8516 31.2266C52.1016 30.9922 52.2969 30.7031 52.4375 30.3594C52.5781 30.0156 52.6484 29.625 52.6484 29.1875C52.6484 28.6953 52.5703 28.2656 52.4141 27.8984C52.2656 27.5234 52.043 27.2109 51.7461 26.9609C51.4727 26.7266 51.1406 26.5508 50.75 26.4336C50.3594 26.3086 49.9219 26.2422 49.4375 26.2344H46.8359V32.082ZM68.4336 33.3477H61.3789V38.6797H69.6172V41H58.5547V23.9375H69.5586V26.2695H61.3789V31.0742H68.4336V33.3477Z" fill="#46454F"/>
</svg>
